<svg width="12" height="11" viewBox="0 0 12 11" fill="none" xmlns="http://www.w3.org/2000/svg">
<g id="&#240;&#159;&#166;&#134; icon &#34;arrow-left&#34;">
<path id="Vector" d="M5.44274 1.10279L5.44464 1.101L6.03922 0.541802C6.09953 0.485085 6.20508 0.487646 6.26011 0.539974L6.26215 0.541891L11.4686 5.43601C11.4939 5.45977 11.5 5.48282 11.5 5.49968C11.5 5.51641 11.4941 5.53777 11.4706 5.55964L11.4706 5.55964L11.4686 5.56147L6.26206 10.4582C6.20175 10.5149 6.0962 10.5123 6.04116 10.46L6.03922 10.4582L5.44464 9.899C5.42057 9.87636 5.41434 9.85385 5.41457 9.83575C5.41481 9.81754 5.42178 9.79405 5.44729 9.77089C5.4474 9.77079 5.44752 9.77068 5.44764 9.77058L8.67379 6.87994L9.64743 6.00756H8.34013H0.642758C0.591944 6.00756 0.553761 5.98872 0.530335 5.96669C0.507528 5.94524 0.499971 5.92313 0.499971 5.90302V5.09697C0.499971 5.07686 0.507528 5.05475 0.530335 5.0333C0.553761 5.01127 0.591944 4.99244 0.642758 4.99244H8.34013H9.64743L8.67379 4.12005L5.44647 1.22836L5.44574 1.22772C5.41908 1.20392 5.41277 1.18075 5.41256 1.16425C5.41235 1.14794 5.41785 1.12595 5.44274 1.10279Z" fill="#1E1E1E" stroke="#1E1E1E"/>
</g>
</svg>
