<svg width="97" height="70" viewBox="0 0 92 70" fill="none" xmlns="http://www.w3.org/2000/svg">
<g id="&#240;&#159;&#166;&#134; icon &#34;Dolly Flatbed&#34;">
<path id="Vector" d="M29.7993 43.75H84.8134C86.0741 43.75 87.1056 42.7656 87.1056 41.5625V6.5625C87.1056 5.35938 86.0741 4.375 84.8134 4.375H64.1831V21.875L57.3063 17.5L50.4296 21.875V4.375H29.7993C28.5386 4.375 27.507 5.35938 27.507 6.5625V41.5625C27.507 42.7656 28.5386 43.75 29.7993 43.75ZM89.3979 52.5H18.338V2.1875C18.338 0.984375 17.3065 0 16.0458 0H2.29225C1.03151 0 0 0.984375 0 2.1875V6.5625C0 7.76562 1.03151 8.75 2.29225 8.75H9.16901V59.0625C9.16901 60.2656 10.2005 61.25 11.4613 61.25H23.338C23.0801 61.9336 22.9225 62.6719 22.9225 63.4375C22.9225 67.0605 26.0028 70 29.7993 70C33.5958 70 36.6761 67.0605 36.6761 63.4375C36.6761 62.6719 36.5041 61.9336 36.2606 61.25H64.6129C64.355 61.9336 64.1974 62.6719 64.1974 63.4375C64.1974 67.0605 67.2776 70 71.0742 70C74.8707 70 77.9509 67.0605 77.9509 63.4375C77.9509 62.6719 77.779 61.9336 77.5355 61.25H89.3979C90.6586 61.25 91.6901 60.2656 91.6901 59.0625V54.6875C91.6901 53.4844 90.6586 52.5 89.3979 52.5Z" fill="#1B0440"/>
</g>
</svg>
