<svg width="97" height="70" viewBox="0 0 97 70" fill="none" xmlns="http://www.w3.org/2000/svg">
<g id="&#240;&#159;&#166;&#134; icon &#34;truck&#34;">
<path id="Vector" d="M94.575 48.125H92.15V33.3457C92.15 31.6094 91.377 29.9414 90.013 28.7109L74.8719 15.0527C73.5078 13.8223 71.6588 13.125 69.7339 13.125H63.05V6.5625C63.05 2.93945 59.7914 0 55.775 0H7.275C3.25859 0 0 2.93945 0 6.5625V50.3125C0 53.9355 3.25859 56.875 7.275 56.875H9.7C9.7 64.1211 16.2172 70 24.25 70C32.2828 70 38.8 64.1211 38.8 56.875H58.2C58.2 64.1211 64.7172 70 72.75 70C80.7828 70 87.3 64.1211 87.3 56.875H94.575C95.9087 56.875 97 55.8906 97 54.6875V50.3125C97 49.1094 95.9087 48.125 94.575 48.125ZM24.25 63.4375C20.2336 63.4375 16.975 60.498 16.975 56.875C16.975 53.252 20.2336 50.3125 24.25 50.3125C28.2664 50.3125 31.525 53.252 31.525 56.875C31.525 60.498 28.2664 63.4375 24.25 63.4375ZM72.75 63.4375C68.7336 63.4375 65.475 60.498 65.475 56.875C65.475 53.252 68.7336 50.3125 72.75 50.3125C76.7664 50.3125 80.025 53.252 80.025 56.875C80.025 60.498 76.7664 63.4375 72.75 63.4375ZM84.875 35H63.05V19.6875H69.7339L84.875 33.3457V35Z" fill="#1B0440"/>
</g>
</svg>
