<svg width="92" height="70" viewBox="0 0 92 70" fill="none" xmlns="http://www.w3.org/2000/svg">
<g id="&#240;&#159;&#166;&#134; icon &#34;Truck Loading&#34;">
<path id="Vector" d="M7.21632 51.3515C7.54695 52.5136 8.81195 53.2109 10.0338 52.8964L41.1413 44.9667C42.3632 44.6523 43.0963 43.4492 42.7657 42.2871L35.6213 16.9258C35.2907 15.7637 34.0257 15.0664 32.8038 15.3808L21.7063 18.2246L25.2713 30.8984L16.3876 33.1543L12.8226 20.4804L1.7107 23.3105C0.488828 23.625 -0.244296 24.8281 0.0863285 25.9902L7.21632 51.3515ZM55.2 0C52.6557 0 50.6 1.95508 50.6 4.375V48.6171L0.848203 61.5234C0.230078 61.6874 -0.129296 62.289 0.0432036 62.8632L1.85445 69.1933C2.02695 69.7812 2.65945 70.123 3.2632 69.9589L59.8575 55.2753C60.2025 63.4511 67.2175 69.9999 75.9 69.9999C84.7981 69.9999 92 63.1503 92 54.6874V0L55.2 0ZM75.9 61.2499C72.0906 61.2499 69 58.3105 69 54.6874C69 51.0644 72.0906 48.1249 75.9 48.1249C79.7094 48.1249 82.8 51.0644 82.8 54.6874C82.8 58.3105 79.7094 61.2499 75.9 61.2499Z" fill="#1B0440"/>
</g>
</svg>
